<svg width="175" height="38" viewBox="0 0 175 38" fill="none" xmlns="http://www.w3.org/2000/svg">
<path d="M10.284 14.276V14.432V19.944V20.724V29.512V32.32C10.284 33.88 11.532 35.128 13.04 35.128C13.56 35.128 14.08 34.972 14.496 34.712C13.248 35.648 11.116 37.26 8.256 37.26C5.032 37.26 2.432 34.608 2.432 31.384V20.152V19.424V14.276C2.432 13.028 1.548 11.676 0.3 11.416C4.252 11.156 7.736 9.44 10.284 6.788V11.416H12.364C11.168 11.676 10.284 13.028 10.284 14.276ZM32.2239 10.428C34.4599 10.532 36.2799 12.196 36.2799 14.432C36.2799 16.668 34.4599 18.488 32.2239 18.488C30.0399 18.488 28.2199 16.668 28.2199 14.432C28.2199 14.172 28.2719 13.86 28.3239 13.6C28.6359 12.196 27.6999 11.52 25.7239 12.508C27.5439 11.572 30.2479 10.324 32.2239 10.428ZM25.5679 34.14C25.5679 35.388 26.5039 36.792 27.6999 37H15.6359C16.8319 36.792 17.7679 35.388 17.7679 34.14V30.656V19.164V16.2V15.628C17.7679 14.328 16.8319 12.976 15.6359 12.768L24.5279 11.468C24.5799 11.468 24.6319 11.468 24.6839 11.468C25.2039 11.468 25.5679 11.832 25.5679 12.352V18.956V30.656V34.14ZM53.1917 33.932C55.2197 33.932 57.2477 32.84 58.7037 31.072C56.6237 34.816 52.8797 37.26 48.6677 37.26C42.1157 37.26 36.8117 31.384 36.8117 24.104C36.8117 16.824 42.1157 10.948 48.6677 10.948C47.2637 11.208 44.6117 15.784 44.6117 21.348C44.6117 28.316 48.4597 33.932 53.1917 33.932ZM52.5677 19.84C52.5677 15.68 51.1637 11.728 49.3437 10.948C54.6477 11.312 58.5997 15.576 59.6917 21.244H53.7117H51.4237H51.1117C51.8917 21.244 52.5677 20.62 52.5677 19.84ZM71.2203 18.956V21.816V30.656V34.14C71.2203 35.388 72.1563 36.792 73.3523 37H61.2883C62.4843 36.792 63.4203 35.388 63.4203 34.14V30.656V21.816V19.164V16.2V15.628C63.4203 14.328 62.4843 12.976 61.2883 12.768L70.1803 11.468C70.2323 11.468 70.2843 11.468 70.3363 11.468C70.8563 11.468 71.2203 11.832 71.2203 12.352V18.956ZM84.8963 34.14C84.8963 35.388 85.8323 36.792 87.0283 37H83.8043H74.9643C76.1603 36.792 77.0963 35.388 77.0963 34.14V32.684V18.8C77.0963 16.148 79.8003 15.472 79.8003 13.548C79.8003 12.404 78.3443 11.364 76.2643 11.364C74.0803 11.364 72.1563 12.144 71.4803 12.456C76.3163 10.116 84.8963 9.44 84.8963 18.072V32.684V34.14ZM88.7126 23.064C89.4406 15.784 94.9006 10.376 100.569 10.948C101.921 11.104 103.065 11.416 104.053 11.936C103.585 11.728 103.117 11.624 102.597 11.624C99.1646 11.624 96.3566 17.136 96.3566 23.532C96.3566 29.928 99.1646 35.596 102.597 35.596C103.117 35.596 103.585 35.44 104.053 35.232C102.181 36.688 99.9446 37.468 97.6566 37.208C91.9886 36.636 87.9326 30.292 88.7126 23.064ZM112.113 33.1C112.113 34.348 113.049 35.752 114.245 35.96L105.353 37.26C105.301 37.26 105.249 37.26 105.197 37.26C104.729 37.26 104.313 36.844 104.313 36.324V35.856V28.16V20.516V4.76C104.313 3.512 103.377 2.108 102.181 1.9L111.073 0.599998C111.125 0.599998 111.177 0.599998 111.229 0.599998C111.749 0.599998 112.113 1.016 112.113 1.536V21.088V27.64V32.528V33.1ZM125.201 34.14C125.201 35.388 126.137 36.792 127.333 37H124.109H115.269C116.465 36.792 117.401 35.388 117.401 34.14V32.684V19.164V16.2V15.628C117.401 14.328 116.465 12.976 115.269 12.768L124.161 11.468C124.213 11.468 124.265 11.468 124.317 11.468C124.837 11.468 125.201 11.832 125.201 12.352V18.956V32.684V34.14ZM121.301 8.66C119.065 8.66 117.297 6.84 117.297 4.656C117.297 2.42 119.065 0.599998 121.301 0.599998C123.537 0.599998 125.357 2.42 125.357 4.656C125.357 6.84 123.537 8.66 121.301 8.66ZM145.309 33.932C147.337 33.932 149.365 32.84 150.821 31.072C148.741 34.816 144.997 37.26 140.785 37.26C134.233 37.26 128.929 31.384 128.929 24.104C128.929 16.824 134.233 10.948 140.785 10.948C139.381 11.208 136.729 15.784 136.729 21.348C136.729 28.316 140.577 33.932 145.309 33.932ZM144.685 19.84C144.685 15.68 143.281 11.728 141.461 10.948C146.765 11.312 150.717 15.576 151.809 21.244H145.829H143.541H143.229C144.009 21.244 144.685 20.62 144.685 19.84ZM160.037 35.18C160.141 36.116 161.285 37.052 163.209 37.208C158.373 36.896 154.421 34.088 154.421 30.5C154.421 28.316 156.241 26.496 158.425 26.496C160.661 26.496 162.481 28.316 162.481 30.5C162.481 31.748 161.909 32.892 161.025 33.62C160.453 34.088 159.985 34.608 160.037 35.18ZM174.025 29.98C174.337 34.088 169.605 37.26 164.197 37.26C166.069 37.26 167.577 35.44 167.577 33.568C167.577 28.368 154.421 24.312 154.421 17.032C154.421 12.872 159.361 10.948 163.209 10.948C163.833 10.948 164.353 10.948 164.873 11.052C163.001 10.792 161.441 11.988 161.441 14.276C161.441 19.788 173.401 22.856 174.025 29.98ZM172.309 20.1C171.737 17.032 170.073 12.04 165.393 11.104C167.681 11.52 168.981 12.404 170.749 12.248C171.321 12.196 172.101 11.936 172.309 11.676V20.1Z" fill="#1C1C1C"/>
</svg>
