<svg width="262" height="56" viewBox="0 0 262 56" fill="none" xmlns="http://www.w3.org/2000/svg">
<path d="M15.926 20.914V21.148V29.416V30.586V43.768V47.98C15.926 50.32 17.798 52.192 20.06 52.192C20.84 52.192 21.62 51.958 22.244 51.568C20.372 52.972 17.174 55.39 12.884 55.39C8.048 55.39 4.148 51.412 4.148 46.576V29.728V28.636V20.914C4.148 19.042 2.822 17.014 0.95 16.624C6.878 16.234 12.104 13.66 15.926 9.682V16.624H19.046C17.252 17.014 15.926 19.042 15.926 20.914ZM48.8359 15.142C52.1899 15.298 54.9199 17.794 54.9199 21.148C54.9199 24.502 52.1899 27.232 48.8359 27.232C45.5599 27.232 42.8299 24.502 42.8299 21.148C42.8299 20.758 42.9079 20.29 42.9859 19.9C43.4539 17.794 42.0499 16.78 39.0859 18.262C41.8159 16.858 45.8719 14.986 48.8359 15.142ZM38.8519 50.71C38.8519 52.582 40.2559 54.688 42.0499 55H23.9539C25.7479 54.688 27.1519 52.582 27.1519 50.71V45.484V28.246V23.8V22.942C27.1519 20.992 25.7479 18.964 23.9539 18.652L37.2919 16.702C37.3699 16.702 37.4479 16.702 37.5259 16.702C38.3059 16.702 38.8519 17.248 38.8519 18.028V27.934V45.484V50.71ZM80.2876 50.398C83.3296 50.398 86.3716 48.76 88.5556 46.108C85.4356 51.724 79.8196 55.39 73.5016 55.39C63.6736 55.39 55.7176 46.576 55.7176 35.656C55.7176 24.736 63.6736 15.922 73.5016 15.922C71.3956 16.312 67.4176 23.176 67.4176 31.522C67.4176 41.974 73.1896 50.398 80.2876 50.398ZM79.3516 29.26C79.3516 23.02 77.2456 17.092 74.5156 15.922C82.4716 16.468 88.3996 22.864 90.0376 31.366H81.0676H77.6356H77.1676C78.3376 31.366 79.3516 30.43 79.3516 29.26ZM107.33 27.934V32.224V45.484V50.71C107.33 52.582 108.734 54.688 110.528 55H92.4324C94.2264 54.688 95.6304 52.582 95.6304 50.71V45.484V32.224V28.246V23.8V22.942C95.6304 20.992 94.2264 18.964 92.4324 18.652L105.77 16.702C105.848 16.702 105.926 16.702 106.004 16.702C106.784 16.702 107.33 17.248 107.33 18.028V27.934ZM127.844 50.71C127.844 52.582 129.248 54.688 131.042 55H126.206H112.946C114.74 54.688 116.144 52.582 116.144 50.71V48.526V27.7C116.144 23.722 120.2 22.708 120.2 19.822C120.2 18.106 118.016 16.546 114.896 16.546C111.62 16.546 108.734 17.716 107.72 18.184C114.974 14.674 127.844 13.66 127.844 26.608V48.526V50.71ZM133.569 34.096C134.661 23.176 142.851 15.064 151.353 15.922C153.381 16.156 155.097 16.624 156.579 17.404C155.877 17.092 155.175 16.936 154.395 16.936C149.247 16.936 145.035 25.204 145.035 34.798C145.035 44.392 149.247 52.894 154.395 52.894C155.175 52.894 155.877 52.66 156.579 52.348C153.771 54.532 150.417 55.702 146.985 55.312C138.483 54.454 132.399 44.938 133.569 34.096ZM168.669 49.15C168.669 51.022 170.073 53.128 171.867 53.44L158.529 55.39C158.451 55.39 158.373 55.39 158.295 55.39C157.593 55.39 156.969 54.766 156.969 53.986V53.284V41.74V30.274V6.64C156.969 4.768 155.565 2.662 153.771 2.35L167.109 0.399996C167.187 0.399996 167.265 0.399996 167.343 0.399996C168.123 0.399996 168.669 1.024 168.669 1.804V31.132V40.96V48.292V49.15ZM188.301 50.71C188.301 52.582 189.705 54.688 191.499 55H186.663H173.403C175.197 54.688 176.601 52.582 176.601 50.71V48.526V28.246V23.8V22.942C176.601 20.992 175.197 18.964 173.403 18.652L186.741 16.702C186.819 16.702 186.897 16.702 186.975 16.702C187.755 16.702 188.301 17.248 188.301 18.028V27.934V48.526V50.71ZM182.451 12.49C179.097 12.49 176.445 9.76 176.445 6.484C176.445 3.13 179.097 0.399996 182.451 0.399996C185.805 0.399996 188.535 3.13 188.535 6.484C188.535 9.76 185.805 12.49 182.451 12.49ZM218.463 50.398C221.505 50.398 224.547 48.76 226.731 46.108C223.611 51.724 217.995 55.39 211.677 55.39C201.849 55.39 193.893 46.576 193.893 35.656C193.893 24.736 201.849 15.922 211.677 15.922C209.571 16.312 205.593 23.176 205.593 31.522C205.593 41.974 211.365 50.398 218.463 50.398ZM217.527 29.26C217.527 23.02 215.421 17.092 212.691 15.922C220.647 16.468 226.575 22.864 228.213 31.366H219.243H215.811H215.343C216.513 31.366 217.527 30.43 217.527 29.26ZM240.556 52.27C240.712 53.674 242.428 55.078 245.314 55.312C238.06 54.844 232.132 50.632 232.132 45.25C232.132 41.974 234.862 39.244 238.138 39.244C241.492 39.244 244.222 41.974 244.222 45.25C244.222 47.122 243.364 48.838 242.038 49.93C241.18 50.632 240.478 51.412 240.556 52.27ZM261.538 44.47C262.006 50.632 254.908 55.39 246.796 55.39C249.604 55.39 251.866 52.66 251.866 49.852C251.866 42.052 232.132 35.968 232.132 25.048C232.132 18.808 239.542 15.922 245.314 15.922C246.25 15.922 247.03 15.922 247.81 16.078C245.002 15.688 242.662 17.482 242.662 20.914C242.662 29.182 260.602 33.784 261.538 44.47ZM258.964 29.65C258.106 25.048 255.61 17.56 248.59 16.156C252.022 16.78 253.972 18.106 256.624 17.872C257.482 17.794 258.652 17.404 258.964 17.014V29.65Z" fill="white"/>
</svg>
